{"glyphs":{":":{"x_min":0,"x_max":340,"ha":340,"o":"m 273 499 q 295 499 315 488 q 334 477 345 458 q 355 440 355 416 q 355 389 342 366 q 329 343 303 328 q 277 314 254 314 q 232 314 211 325 q 190 337 180 355 q 170 373 170 397 q 170 425 183 448 q 197 472 221 485 q 246 499 273 499 z m 195 171 q 218 171 239 160 q 259 149 271 129 q 282 109 282 87 q 282 62 268 38 q 254 14 231 1 q 208 -12 180 -12 q 142 -12 119 11 q 96 33 96 70 q 96 97 109 120 q 122 144 146 157 q 171 171 195 171 z"},"$":{"x_min":0,"x_max":680,"ha":680,"o":"m 494 789 l 577 789 l 547 661 q 573 647 597 631 l 618 666 l 685 666 l 704 434 l 605 422 q 599 455 588 478 q 578 501 563 519 q 548 537 524 555 l 491 409 q 597 373 640 325 q 682 276 682 213 q 682 159 650 110 q 618 61 556 30 q 495 0 422 0 q 414 0 397 0 l 370 -118 l 287 -118 l 317 15 q 285 28 269 37 q 253 47 231 66 l 200 12 l 132 12 l 132 281 l 231 289 q 240 244 255 213 q 269 183 290 160 q 311 137 341 120 l 379 289 q 281 322 239 363 q 190 411 190 482 q 190 535 219 580 q 248 624 304 652 q 361 679 433 679 q 444 679 468 678 z m 444 576 q 406 577 383 569 q 360 560 348 544 q 336 528 336 511 q 336 498 344 483 q 352 468 365 459 q 377 451 413 438 z m 420 102 q 429 102 434 102 q 479 102 507 125 q 536 149 536 181 q 536 206 521 222 q 500 245 457 262 z"},"?":{"x_min":0,"x_max":620,"ha":620,"o":"m 234 207 l 276 393 q 304 392 316 392 q 384 392 430 398 q 476 404 494 415 q 513 426 524 444 q 535 462 535 483 q 535 524 499 555 q 458 590 403 590 q 380 590 359 581 q 338 572 320 554 q 311 545 296 522 q 283 503 278 499 q 270 492 257 487 q 245 483 232 483 q 203 483 182 503 q 162 523 162 551 q 162 583 188 616 q 214 649 273 671 q 333 693 407 693 q 490 693 556 662 q 622 631 655 582 q 688 532 688 476 q 688 419 654 369 q 620 319 558 292 q 497 266 389 266 q 377 266 350 267 l 336 207 z m 264 167 q 287 167 306 157 q 325 146 336 128 q 346 109 346 86 q 346 47 319 18 q 292 -12 249 -12 q 211 -12 189 10 q 167 33 167 69 q 167 95 180 118 q 193 141 217 154 q 240 167 264 167 z"},"<":{"x_min":0,"x_max":620,"ha":620,"o":"m 631 166 l 631 72 l 147 299 l 147 382 l 631 609 l 631 515 l 269 340 z"},"'":{"x_min":0,"x_max":180,"ha":180,"o":"m 149 413 l 156 577 q 157 614 162 628 q 170 657 191 675 q 211 693 233 693 q 252 693 263 679 q 275 666 275 640 q 275 630 272 618 q 269 606 256 577 l 187 413 z"},"=":{"x_min":0,"x_max":600,"ha":600,"o":"m 622 388 l 138 388 l 138 479 l 622 479 z m 622 201 l 138 201 l 138 293 l 622 293 z"},"a":{"x_min":0,"x_max":680,"ha":680,"o":"m 526 445 l 557 487 l 669 487 l 595 160 q 587 126 587 117 q 587 108 594 103 q 600 97 610 97 q 620 97 637 105 q 654 114 673 131 l 729 67 q 685 25 642 7 q 600 -12 556 -12 q 525 -12 500 -1 q 475 10 458 30 q 440 49 434 74 q 412 48 382 27 q 352 7 324 -2 q 296 -12 262 -12 q 209 -12 169 13 q 129 37 107 81 q 84 125 84 187 q 84 314 174 406 q 265 499 381 499 q 424 499 457 487 q 489 475 526 445 z m 486 364 q 459 384 441 392 q 422 399 403 399 q 339 399 296 330 q 253 261 253 181 q 253 147 271 126 q 288 105 312 105 q 338 105 364 124 q 400 151 433 212 q 466 274 486 364 z"},"L":{"x_min":0,"x_max":640,"ha":640,"o":"m 159 681 l 489 681 l 467 587 l 438 587 q 417 587 408 584 q 394 579 386 568 q 378 558 373 530 l 286 148 q 281 126 281 122 q 281 115 287 111 q 293 107 311 107 l 335 107 q 396 107 426 111 q 476 119 514 139 q 553 160 583 196 q 613 231 636 281 l 722 244 l 603 0 l 4 0 l 26 94 l 49 94 q 78 94 89 99 q 101 104 108 114 q 115 124 122 155 l 207 530 q 212 554 212 560 q 212 573 203 581 q 196 587 175 587 l 138 587 z"},"3":{"x_min":0,"x_max":680,"ha":680,"o":"m 285 471 l 183 471 q 192 542 227 590 q 262 638 323 666 q 384 693 466 693 q 575 693 636 644 q 698 595 698 525 q 698 483 675 445 q 653 408 612 382 q 583 365 538 352 q 588 337 612 319 q 636 301 651 272 q 665 242 665 211 q 665 154 630 102 q 594 50 526 19 q 457 -12 365 -12 q 243 -12 170 46 q 97 103 97 170 q 97 207 118 229 q 140 252 172 252 q 229 252 253 183 q 265 148 267 143 q 274 129 288 116 q 302 103 323 94 q 344 86 368 86 q 404 86 435 103 q 465 120 481 148 q 497 176 497 211 q 497 253 466 281 q 435 308 378 308 l 363 307 l 332 307 l 353 402 l 396 402 q 452 402 478 412 q 503 421 518 443 q 532 464 532 490 q 532 514 520 533 q 508 552 482 563 q 456 574 421 574 q 385 574 356 561 q 326 549 311 530 q 295 511 285 471 z"},";":{"x_min":0,"x_max":340,"ha":340,"o":"m 269 499 q 292 499 312 489 q 331 478 339 461 q 352 437 352 414 q 352 388 338 364 q 325 340 302 326 q 278 313 253 313 q 230 313 209 324 q 188 335 177 356 q 167 376 167 399 q 167 423 180 448 q 194 472 219 486 q 243 499 269 499 z m 78 -183 l 47 -119 q 89 -103 127 -77 q 165 -51 178 -34 q 192 -17 201 12 q 188 4 181 2 q 174 0 164 0 q 133 0 114 24 q 95 47 95 80 q 95 103 107 124 q 120 146 143 158 q 166 170 192 170 q 221 170 248 154 q 274 138 289 111 q 304 83 304 49 q 304 5 280 -38 q 255 -82 205 -120 q 155 -158 78 -183 z"},"J":{"x_min":0,"x_max":620,"ha":620,"o":"m 432 681 l 762 681 l 741 587 l 712 587 q 688 587 678 582 q 666 576 658 564 q 652 556 645 524 l 577 226 q 559 145 520 94 q 480 44 420 16 q 359 -12 280 -12 q 171 -12 107 44 q 43 100 43 182 q 43 237 71 270 q 99 302 138 302 q 172 302 193 280 q 214 258 214 220 q 214 209 212 196 q 209 174 209 167 q 209 147 220 130 q 230 113 249 104 q 268 95 292 95 q 337 95 367 125 q 396 156 416 242 l 481 534 q 486 554 486 560 q 486 575 473 583 q 465 587 438 587 l 411 587 z"},"V":{"x_min":0,"x_max":660,"ha":660,"o":"m 157 681 l 469 681 l 449 587 l 418 587 q 393 587 385 583 q 376 580 371 572 q 364 562 364 550 q 364 546 367 523 l 399 186 l 572 527 q 585 552 585 561 q 585 574 576 580 q 567 587 541 587 l 514 587 l 534 681 l 813 681 l 792 587 q 765 587 752 582 q 739 577 727 563 q 719 554 705 527 l 418 0 l 266 0 l 197 530 q 193 559 188 569 q 183 579 174 583 q 165 587 136 587 z"},"\"":{"x_min":0,"x_max":380,"ha":380,"o":"m 159 413 l 166 577 q 167 606 168 614 q 172 635 184 654 q 195 673 211 683 q 227 693 243 693 q 262 693 274 679 q 285 666 285 641 q 285 618 271 588 q 268 582 267 577 l 197 413 z m 339 413 l 346 577 q 347 606 348 614 q 352 635 364 654 q 375 673 391 683 q 407 693 423 693 q 442 693 454 679 q 465 666 465 641 q 465 618 451 588 q 448 582 446 577 l 377 413 z"},"7":{"x_min":0,"x_max":680,"ha":680,"o":"m 265 703 l 331 703 l 331 681 l 802 681 l 780 587 q 697 519 640 454 q 583 389 537 314 q 491 239 461 163 q 420 60 409 0 l 229 0 q 254 92 284 156 q 313 220 353 276 q 406 350 474 425 q 543 500 590 536 l 353 536 q 326 536 309 529 q 296 525 288 515 q 273 499 265 476 l 245 425 l 157 458 z"},"S":{"x_min":0,"x_max":700,"ha":700,"o":"m 727 681 l 746 445 l 646 430 q 621 501 563 544 q 504 587 433 587 q 396 587 371 577 q 346 567 333 550 q 320 532 320 515 q 320 492 343 472 q 365 452 435 433 q 553 399 608 372 q 663 345 691 305 q 720 266 720 210 q 720 116 635 49 q 558 -12 440 -12 q 370 -12 315 7 q 261 26 213 67 l 171 0 l 101 0 l 101 274 l 200 281 q 216 229 255 185 q 294 140 343 117 q 392 95 444 95 q 501 95 532 118 q 563 141 563 175 q 563 200 544 219 q 524 238 466 255 q 345 292 296 312 q 247 333 221 358 q 195 382 181 416 q 166 450 166 485 q 166 539 198 586 q 229 634 293 664 q 356 693 436 693 q 496 693 549 674 q 587 661 625 632 l 656 681 z"},"}":{"x_min":0,"x_max":300,"ha":300,"o":"m -17 -187 l -12 -165 q 24 -158 47 -145 q 69 -132 84 -113 q 100 -93 104 -73 q 111 -44 111 6 q 111 69 121 101 q 131 133 156 163 q 182 194 217 215 q 252 236 315 252 q 263 270 239 288 q 215 305 202 331 q 189 357 189 386 q 189 405 193 420 q 203 450 222 490 q 255 562 255 594 q 255 614 247 630 q 239 646 226 655 q 212 664 181 670 l 186 693 q 228 693 243 690 q 271 684 297 667 q 323 650 338 622 q 354 593 354 561 q 354 542 348 524 q 338 494 315 446 q 300 415 292 385 q 285 356 285 338 q 285 312 303 293 q 322 274 358 268 l 352 238 q 310 231 281 210 q 253 188 239 156 q 225 123 225 65 q 225 4 223 -13 q 219 -44 203 -70 q 180 -108 144 -135 q 108 -163 64 -175 q 32 -185 -17 -187 z"},"Z":{"x_min":0,"x_max":680,"ha":680,"o":"m 252 681 l 773 681 l 751 587 l 291 106 l 338 106 q 427 106 473 122 q 520 138 562 177 q 605 217 645 289 l 729 247 l 590 0 l 40 0 l 61 94 l 521 573 l 480 573 q 381 573 328 542 q 258 503 208 409 l 124 449 z"},"x":{"x_min":0,"x_max":620,"ha":620,"o":"m 310 499 l 387 337 q 452 429 475 451 q 506 482 539 497 q 572 512 599 512 q 630 512 650 493 q 670 474 670 446 q 670 426 663 412 q 655 398 641 388 q 626 377 612 374 q 606 372 578 371 q 546 369 537 366 q 525 362 512 353 q 495 340 482 324 q 477 318 429 251 l 454 197 q 484 134 504 115 q 524 96 543 96 q 576 96 616 133 l 672 69 q 585 -12 493 -12 q 456 -12 426 0 q 396 13 375 37 q 353 61 328 112 l 300 171 q 260 107 219 63 q 177 20 144 4 q 112 -12 85 -12 q 63 -12 44 -2 q 30 5 21 21 q 11 38 11 56 q 11 76 22 94 q 33 111 50 119 q 66 126 109 128 q 139 130 156 138 q 174 147 194 169 q 214 191 258 258 l 209 362 l 135 362 l 155 457 q 217 466 270 499 z"},")":{"x_min":0,"x_max":260,"ha":260,"o":"m 41 -231 l -27 -164 q 22 -108 50 -46 q 98 56 133 207 q 176 391 176 497 q 176 593 148 670 l 233 710 q 272 645 289 580 q 307 515 307 439 q 307 353 281 228 q 256 103 221 17 q 186 -69 140 -130 q 95 -190 41 -231 z"},"&":{"x_min":0,"x_max":980,"ha":980,"o":"m 691 448 l 957 448 l 936 355 l 914 355 q 887 355 874 351 q 862 346 848 330 q 842 324 823 292 q 795 245 769 211 q 743 176 715 148 q 761 88 809 88 q 828 88 844 97 q 860 106 869 122 q 878 138 878 157 l 877 176 q 876 196 876 198 q 876 233 897 254 q 917 274 948 274 q 978 274 999 252 q 1020 229 1020 193 q 1020 145 988 97 q 953 44 899 16 q 846 -12 771 -12 q 713 -12 672 4 q 631 20 599 54 q 542 19 488 3 q 435 -12 370 -12 q 279 -12 217 17 q 155 46 121 96 q 87 147 87 204 q 87 257 116 305 q 145 354 198 386 q 250 419 346 439 q 318 455 304 475 q 283 505 283 539 q 283 576 309 613 q 335 649 384 671 q 432 693 497 693 q 555 693 597 675 q 639 656 659 626 q 680 596 680 560 q 680 521 656 486 q 633 452 591 430 q 560 413 512 404 q 533 394 545 382 q 570 361 593 329 q 604 314 662 222 q 690 248 719 296 q 734 320 734 335 q 734 345 725 350 q 717 355 691 355 l 670 355 z m 487 603 q 459 603 439 580 q 419 558 419 524 q 419 506 426 491 q 431 481 442 475 q 456 467 471 467 q 497 467 517 491 q 538 515 538 548 q 538 575 525 589 q 511 603 487 603 z m 410 373 q 327 348 290 308 q 253 269 253 225 q 253 192 271 163 q 290 134 324 117 q 358 100 402 100 q 470 100 532 131 q 517 154 504 179 q 492 205 469 262 q 444 327 433 347 q 424 361 410 373 z"},"_":{"x_min":0,"x_max":500,"ha":500,"o":"m -6 -75 l 506 -75 l 506 -125 l -6 -125 z"},"v":{"x_min":0,"x_max":540,"ha":540,"o":"m 354 499 l 281 172 q 274 142 274 134 q 274 122 283 113 q 292 104 307 104 q 333 104 362 128 q 405 164 434 217 q 462 271 462 315 q 462 333 459 347 q 456 361 443 388 q 434 407 432 414 q 429 423 429 433 q 429 463 454 486 q 478 509 513 509 q 550 509 573 480 q 597 451 597 395 q 597 327 566 248 q 535 169 479 107 q 424 44 367 16 q 310 -12 248 -12 q 192 -12 158 17 q 117 50 117 98 q 117 127 125 165 l 170 362 l 95 362 l 117 457 q 159 458 205 468 q 251 478 310 499 z"},"O":{"x_min":0,"x_max":760,"ha":760,"o":"m 502 693 q 590 693 663 652 q 736 611 776 541 q 816 472 816 384 q 816 277 763 185 q 710 92 619 40 q 528 -12 418 -12 q 262 -12 172 95 q 100 180 100 299 q 100 403 154 497 q 208 590 298 641 q 389 693 502 693 z m 495 589 q 440 589 396 556 q 352 522 318 443 q 284 364 284 276 q 284 217 302 174 q 321 131 351 112 q 380 93 424 93 q 479 93 522 125 q 564 157 597 241 q 631 325 631 416 q 631 467 612 509 q 593 550 563 569 q 533 589 495 589 z"},"(":{"x_min":0,"x_max":260,"ha":260,"o":"m 321 710 l 389 643 q 340 587 312 525 q 265 423 229 272 q 186 88 186 -18 q 186 -114 214 -191 l 129 -231 q 90 -166 73 -101 q 55 -36 55 40 q 55 126 81 251 q 106 376 141 462 q 176 547 222 608 q 267 669 321 710 z"},"C":{"x_min":0,"x_max":700,"ha":700,"o":"m 744 681 l 768 425 l 667 414 q 657 503 615 547 q 574 591 512 591 q 457 591 406 557 q 355 522 323 454 q 287 378 287 302 q 287 241 309 194 q 331 147 367 124 q 403 101 446 101 q 480 101 514 112 q 548 124 583 148 q 618 173 667 226 l 737 166 q 678 83 584 32 q 504 -12 410 -12 q 277 -12 190 77 q 100 168 100 304 q 100 406 152 496 q 204 586 293 639 q 382 693 481 693 q 537 693 587 677 q 622 666 652 645 l 674 681 z"},"W":{"x_min":0,"x_max":1000,"ha":1000,"o":"m 160 681 l 466 681 l 445 587 l 419 587 q 386 587 377 580 q 365 570 365 551 l 366 538 l 366 528 l 397 170 l 562 484 l 553 528 l 553 535 q 550 555 543 567 q 536 579 527 583 q 518 587 492 587 l 514 681 l 815 681 l 793 587 l 765 587 q 734 587 724 578 q 713 569 713 547 q 713 544 714 539 l 742 185 l 906 522 q 912 534 918 551 q 920 558 920 561 q 920 569 915 576 q 910 583 904 585 q 897 587 875 587 l 848 587 l 869 681 l 1146 681 l 1125 587 q 1104 586 1094 584 q 1084 582 1076 576 q 1068 571 1059 560 q 1055 555 1045 535 l 765 0 l 611 0 l 576 320 l 409 0 l 256 0 l 198 528 q 195 557 189 567 q 183 577 174 582 q 164 587 139 587 z"},"A":{"x_min":0,"x_max":720,"ha":720,"o":"m 438 681 l 591 681 l 680 151 q 685 118 690 110 q 694 103 704 98 q 713 94 742 94 l 719 0 l 408 0 l 430 94 l 457 94 q 486 94 496 100 q 513 110 513 130 q 513 139 508 171 l 501 226 l 290 226 l 245 147 q 231 123 231 113 q 231 103 242 98 q 249 94 276 94 l 302 94 l 281 0 l 1 0 l 23 94 q 48 94 61 98 q 74 103 83 112 q 92 122 114 156 z m 489 315 l 461 523 l 346 315 z"},"f":{"x_min":0,"x_max":420,"ha":420,"o":"m 383 487 l 473 487 l 451 393 l 361 393 l 271 -6 q 255 -78 220 -128 q 186 -177 140 -200 q 95 -223 33 -223 q -28 -223 -64 -199 q -107 -170 -107 -131 q -107 -102 -87 -81 q -67 -61 -37 -61 q -24 -61 -12 -65 q 0 -70 11 -78 q 18 -83 37 -106 q 45 -116 52 -120 q 58 -123 67 -123 q 101 -123 114 -53 l 208 393 l 132 393 l 153 487 l 229 487 l 240 538 q 258 623 320 669 q 382 716 484 716 q 534 716 563 704 q 592 692 609 670 q 625 647 625 624 q 625 604 615 587 q 606 570 590 561 q 574 553 554 553 q 535 553 519 560 q 503 568 488 586 q 470 606 462 611 q 455 616 445 616 q 427 616 414 598 q 406 586 396 544 z"},"Q":{"x_min":0,"x_max":760,"ha":760,"o":"m 285 12 q 200 48 150 124 q 100 201 100 299 q 100 403 153 496 q 207 589 297 641 q 387 693 495 693 q 636 693 726 605 q 816 517 816 384 q 816 280 766 189 q 716 99 627 45 q 539 -9 443 -11 q 442 -37 453 -54 q 464 -71 486 -82 q 509 -92 542 -92 q 571 -92 606 -82 q 640 -72 664 -58 l 706 -142 q 646 -174 595 -188 q 545 -201 495 -201 q 425 -201 378 -178 q 331 -154 307 -114 q 284 -73 284 -9 q 284 1 285 12 z m 495 589 q 440 589 396 556 q 352 522 318 443 q 284 364 284 276 q 284 217 302 174 q 321 131 351 112 q 380 93 424 93 q 479 93 522 125 q 564 157 597 241 q 631 325 631 416 q 631 467 612 509 q 593 550 563 569 q 533 589 495 589 z"},"w":{"x_min":0,"x_max":860,"ha":860,"o":"m 351 499 l 278 175 q 272 148 272 139 q 272 124 282 114 q 291 105 306 105 q 330 105 357 128 q 402 166 438 240 q 473 314 499 434 l 511 487 l 666 487 l 596 175 q 591 153 591 141 q 591 126 603 115 q 614 104 632 104 q 686 104 735 176 q 785 248 785 307 q 785 327 781 342 q 780 349 768 376 q 755 404 753 411 q 750 422 750 434 q 750 469 776 489 q 802 509 830 509 q 853 509 874 495 q 896 481 906 456 q 917 432 917 389 q 917 289 865 191 q 813 93 731 36 q 661 -12 584 -12 q 536 -12 504 4 q 473 21 456 52 q 444 72 439 105 q 410 63 378 38 q 347 12 314 0 q 281 -12 245 -12 q 187 -12 151 22 q 115 55 115 102 q 115 110 118 130 q 121 157 124 169 l 167 363 l 90 363 l 113 457 q 154 457 206 468 q 259 479 306 499 z"},"-":{"x_min":0,"x_max":280,"ha":280,"o":"m 97 300 l 318 300 l 294 193 l 73 193 z"},"E":{"x_min":0,"x_max":720,"ha":720,"o":"m 165 587 l 186 681 l 730 681 l 796 477 l 706 447 q 695 481 679 502 q 659 531 633 547 q 608 562 573 569 q 550 574 505 574 l 410 574 l 370 399 l 391 399 q 428 399 447 405 q 466 410 477 422 q 488 434 496 458 q 500 467 505 499 l 596 499 l 531 210 l 440 210 q 450 251 450 264 q 450 288 432 299 q 419 308 377 308 l 351 308 l 316 155 l 312 136 q 309 127 309 121 q 309 111 318 108 q 322 106 351 106 l 407 106 q 479 106 522 120 q 580 138 622 181 q 665 223 688 282 l 775 245 l 656 0 l 32 0 l 54 94 l 78 94 q 115 94 128 106 q 142 118 151 160 l 234 526 q 239 550 239 560 q 239 568 235 575 q 230 582 223 584 q 216 587 196 587 z"},"s":{"x_min":0,"x_max":540,"ha":540,"o":"m 379 499 q 443 499 495 481 q 546 463 567 438 q 587 414 587 389 q 587 362 570 344 q 553 326 525 326 q 512 326 500 330 q 487 333 477 340 q 469 345 449 364 q 429 383 421 388 q 409 395 392 399 q 376 403 356 403 q 323 403 308 393 q 294 382 294 367 q 294 354 302 346 q 313 335 337 327 q 434 295 475 275 q 516 254 537 226 q 558 198 558 159 q 558 114 529 75 q 501 35 447 12 q 394 -12 312 -12 q 193 -12 122 33 q 68 67 68 112 q 68 139 87 158 q 105 177 132 177 q 144 177 155 173 q 167 169 179 159 q 188 153 206 132 q 221 116 229 110 q 252 93 272 87 q 292 81 322 81 q 361 81 380 91 q 404 105 404 124 q 404 142 386 154 q 373 163 297 188 q 208 218 175 255 q 141 292 141 340 q 141 382 167 418 q 193 454 246 477 q 300 499 379 499 z"},">":{"x_min":0,"x_max":620,"ha":620,"o":"m 147 515 l 147 609 l 631 382 l 631 299 l 147 72 l 147 166 l 511 340 z"},"l":{"x_min":0,"x_max":380,"ha":380,"o":"m 415 716 l 289 150 q 284 129 284 119 q 284 108 290 102 q 295 96 304 96 q 314 96 328 104 q 351 115 368 132 l 424 69 q 376 24 335 6 q 293 -12 251 -12 q 197 -12 163 20 q 129 52 129 99 q 129 124 139 163 l 231 581 l 153 581 l 176 675 q 219 676 264 686 q 310 695 368 716 z"},"8":{"x_min":0,"x_max":680,"ha":680,"o":"m 551 375 q 672 313 672 208 q 672 150 638 100 q 603 50 535 19 q 468 -12 373 -12 q 287 -12 227 13 q 167 37 136 77 q 106 118 106 159 q 106 205 144 249 q 188 301 284 345 q 241 377 226 396 q 210 415 200 443 q 190 472 190 499 q 190 548 221 593 q 252 638 311 663 q 380 693 462 693 q 573 693 643 642 q 699 602 699 541 q 699 498 668 461 q 629 413 551 375 z m 467 416 q 518 450 536 475 q 554 500 554 521 q 554 549 526 569 q 499 589 450 589 q 399 589 370 568 q 341 547 341 521 q 341 498 364 475 q 387 452 467 416 z m 363 298 q 316 271 284 238 q 252 204 252 174 q 252 140 282 119 q 319 93 383 93 q 448 93 489 120 q 519 140 519 174 q 519 193 510 207 q 499 226 474 241 q 449 257 363 298 z"},"\\":{"x_min":0,"x_max":580,"ha":580,"o":"m 162 720 l 627 -155 l 505 -155 l 41 720 z"},"e":{"x_min":0,"x_max":560,"ha":560,"o":"m 515 176 l 577 105 q 505 42 442 15 q 378 -12 310 -12 q 216 -12 163 28 q 81 91 81 196 q 81 274 125 343 q 169 412 253 455 q 337 499 432 499 q 512 499 557 463 q 601 428 601 377 q 601 342 585 316 q 565 281 528 257 q 490 234 415 218 q 339 202 254 202 l 254 189 q 254 149 280 123 q 306 97 348 97 q 382 97 423 116 q 478 141 515 176 z m 272 288 q 349 292 391 305 q 433 318 450 337 q 463 351 463 369 q 463 384 450 395 q 438 406 417 406 q 393 406 364 392 q 335 378 313 353 q 290 328 272 288 z"},"b":{"x_min":0,"x_max":600,"ha":600,"o":"m 377 716 l 307 404 q 340 442 365 460 q 390 478 422 489 q 454 499 481 499 q 521 499 558 476 q 594 453 616 410 q 637 367 637 314 q 637 232 594 151 q 550 70 486 29 q 422 -12 348 -12 q 264 -12 205 41 l 174 0 l 63 0 l 193 580 l 115 580 l 137 675 q 183 676 222 684 q 261 692 333 716 z m 244 119 q 271 100 286 94 q 301 87 316 87 q 347 87 380 113 q 413 139 439 197 q 465 254 465 309 q 465 345 451 363 q 438 381 414 381 q 388 381 364 362 q 326 331 291 265 q 257 199 244 119 z"},"%":{"x_min":0,"x_max":880,"ha":880,"o":"m 347 693 q 417 693 457 657 q 497 621 497 563 q 497 500 465 441 q 433 383 385 354 q 336 326 271 326 q 201 326 161 363 q 121 400 121 458 q 121 521 152 577 q 184 634 234 663 q 284 693 347 693 z m 341 633 q 314 633 292 616 q 271 598 250 544 q 229 491 229 442 q 229 415 242 400 q 255 385 276 385 q 302 385 324 404 q 347 422 368 475 q 388 528 388 573 q 388 603 375 618 q 363 633 341 633 z m 853 692 l 265 -6 l 187 -6 l 776 692 z m 760 360 q 830 360 870 324 q 910 288 910 231 q 910 167 878 109 q 846 50 798 22 q 750 -6 685 -6 q 614 -6 574 31 q 534 67 534 125 q 534 188 565 245 q 597 301 647 331 q 697 360 760 360 z m 754 301 q 728 301 706 283 q 684 266 663 212 q 642 159 642 110 q 642 83 656 68 q 669 53 689 53 q 715 53 738 71 q 760 89 781 143 q 802 196 802 241 q 802 271 789 286 q 776 301 754 301 z"},"m":{"x_min":0,"x_max":960,"ha":960,"o":"m 358 499 l 336 399 q 370 440 396 460 q 421 479 450 489 q 478 499 506 499 q 537 499 563 488 q 589 476 605 458 q 622 439 630 409 q 651 438 680 458 q 708 479 738 489 q 767 499 798 499 q 855 499 890 466 q 926 433 926 383 q 926 367 924 353 q 923 345 917 320 l 881 156 q 875 131 875 121 q 875 109 881 103 q 887 97 898 97 q 908 97 919 104 q 943 115 961 131 l 1016 68 q 931 -12 841 -12 q 787 -12 753 19 q 719 50 719 93 q 719 117 726 147 l 763 312 q 769 340 769 349 q 769 363 760 372 q 751 381 738 381 q 717 381 695 364 q 659 333 631 273 q 604 213 575 89 l 554 0 l 400 0 l 468 302 q 477 340 477 349 q 477 364 468 373 q 458 382 444 382 q 435 382 425 378 q 412 373 398 362 q 384 351 366 324 q 347 298 328 259 q 309 219 300 188 l 271 75 l 254 0 l 99 0 l 181 363 l 105 363 l 127 458 q 214 461 314 499 z"},"#":{"x_min":0,"x_max":600,"ha":600,"o":"m 598 299 l 598 211 l 497 211 l 465 0 l 376 0 l 407 211 l 323 211 l 292 0 l 204 0 l 235 211 l 136 211 l 136 299 l 249 299 l 262 382 l 164 382 l 164 470 l 274 470 l 303 667 l 389 667 l 361 470 l 445 470 l 475 667 l 563 667 l 534 470 l 623 470 l 623 382 l 521 382 l 510 299 z m 433 382 l 348 382 l 336 299 l 420 299 z"},",":{"x_min":0,"x_max":340,"ha":340,"o":"m 78 -182 l 48 -118 q 94 -99 127 -77 q 160 -55 178 -33 q 191 -17 201 12 q 190 6 181 3 q 171 0 163 0 q 136 0 115 23 q 95 46 95 79 q 95 117 123 144 q 151 171 192 171 q 222 171 248 156 q 274 140 289 112 q 304 83 304 49 q 304 9 280 -36 q 255 -81 208 -117 q 162 -153 78 -182 z"},"n":{"x_min":0,"x_max":680,"ha":680,"o":"m 100 0 l 182 363 l 106 363 l 126 457 q 217 461 314 499 l 360 499 l 339 404 q 371 441 398 460 q 425 479 455 489 q 485 499 516 499 q 574 499 610 465 q 647 430 647 381 q 647 369 646 356 q 645 351 638 322 l 604 167 q 596 131 596 123 q 596 113 602 107 q 607 102 618 102 q 646 102 681 136 l 737 72 q 688 27 648 9 q 608 -8 565 -8 q 505 -8 472 25 q 439 58 439 96 q 439 119 451 167 l 484 316 q 489 340 489 351 q 489 364 480 373 q 471 381 455 381 q 436 381 421 373 q 395 357 364 316 q 333 274 314 223 q 294 172 271 72 l 254 0 z"},"h":{"x_min":0,"x_max":700,"ha":700,"o":"m 368 716 l 414 716 l 343 402 q 375 440 401 459 q 428 479 459 489 q 490 499 521 499 q 563 499 593 484 q 623 469 640 441 q 657 412 657 381 q 657 370 656 360 q 655 355 649 330 l 611 156 q 604 125 604 118 q 604 110 611 104 q 617 97 626 97 q 636 97 650 104 q 665 110 690 132 l 746 68 q 695 23 655 6 q 615 -12 575 -12 q 520 -12 484 20 q 449 51 449 93 q 449 120 458 162 l 490 301 q 498 337 498 350 q 498 363 489 372 q 480 380 466 380 q 433 380 398 349 q 354 309 317 225 q 286 153 268 71 l 251 0 l 98 0 l 229 581 l 152 581 l 174 675 q 266 680 368 716 z"},"z":{"x_min":0,"x_max":560,"ha":560,"o":"m 607 487 l 586 393 l 283 101 q 305 98 343 90 q 369 85 383 85 q 398 85 412 93 q 425 100 431 108 q 435 112 442 134 q 452 159 457 167 q 467 185 483 194 q 499 204 517 204 q 544 204 564 183 q 583 162 583 132 q 583 97 560 62 q 536 28 493 8 q 451 -12 395 -12 q 375 -12 349 -9 q 329 -7 269 2 q 218 10 207 11 q 188 12 167 12 q 111 12 50 0 l 71 94 l 378 390 l 328 400 q 314 403 305 403 q 288 403 276 394 q 264 384 250 354 q 234 321 216 308 q 197 294 174 294 q 147 294 128 314 q 109 333 109 361 q 109 413 157 456 q 205 499 293 499 q 315 499 338 497 q 354 495 408 486 q 457 479 467 477 q 484 476 501 476 q 544 476 607 487 z"},"B":{"x_min":0,"x_max":720,"ha":720,"o":"m 187 681 l 519 681 q 621 681 670 663 q 719 645 746 609 q 772 573 772 528 q 772 472 735 427 q 698 382 615 352 q 661 336 685 317 q 709 297 722 271 q 734 244 734 214 q 734 172 713 132 q 691 91 647 59 q 603 27 550 16 q 476 0 372 0 l 32 0 l 53 94 l 71 94 q 110 94 125 103 q 141 111 148 143 l 236 532 q 240 549 240 558 q 240 575 229 582 q 221 587 194 587 l 165 587 z m 372 404 l 438 404 q 498 404 518 409 q 556 417 579 443 q 602 469 602 504 q 602 539 577 556 q 553 574 488 574 l 411 574 z m 350 306 l 312 146 q 309 129 309 122 q 309 113 314 109 q 319 106 343 106 l 398 106 q 460 106 491 120 q 522 134 542 163 q 562 192 562 224 q 562 250 549 270 q 536 289 512 297 q 487 306 433 306 z"},"K":{"x_min":0,"x_max":780,"ha":780,"o":"m 185 681 l 516 681 l 494 587 l 468 587 q 440 587 430 582 q 419 577 412 567 q 405 557 398 529 l 360 359 l 579 535 q 608 558 608 570 q 608 579 599 583 q 592 587 547 587 l 569 681 l 891 681 l 868 587 q 836 587 817 579 q 797 572 762 545 l 569 399 l 708 151 q 728 114 744 104 q 760 95 801 94 l 780 0 l 451 0 l 472 94 l 497 94 q 525 94 534 100 q 542 105 542 116 q 542 125 530 147 l 443 303 l 327 216 l 312 151 q 308 130 308 119 q 308 106 317 100 q 327 94 360 94 l 382 94 l 360 0 l 30 0 l 51 94 l 78 94 q 106 94 117 99 q 128 104 135 113 q 141 123 148 151 l 235 535 q 239 553 239 560 q 239 574 229 581 q 221 587 192 587 l 163 587 z"},"R":{"x_min":0,"x_max":740,"ha":740,"o":"m 186 681 l 506 681 q 616 681 668 662 q 720 643 748 604 q 776 565 776 516 q 776 438 720 379 q 664 320 562 302 l 659 146 q 681 110 696 102 q 711 94 761 94 l 740 0 l 555 0 l 395 293 l 346 293 l 312 146 q 309 132 309 121 q 309 106 321 99 q 330 94 356 94 l 384 94 l 363 0 l 32 0 l 53 94 l 76 94 q 114 94 128 104 q 142 114 148 146 l 235 530 q 239 549 239 559 q 239 568 235 575 q 230 583 223 585 q 218 587 193 587 l 164 587 z m 369 393 l 445 393 q 506 393 536 405 q 565 417 582 441 q 599 466 599 498 q 599 540 568 557 q 537 573 470 573 l 410 573 z"},"T":{"x_min":0,"x_max":700,"ha":700,"o":"m 230 704 l 294 704 l 298 681 l 685 681 l 693 704 l 758 704 l 804 457 l 705 438 l 700 453 q 681 512 674 525 q 659 555 633 573 q 607 590 585 590 q 574 590 568 584 q 562 578 558 561 l 467 157 q 460 129 460 119 q 460 105 472 99 q 479 94 504 94 l 535 94 l 513 0 l 183 0 l 205 94 l 230 94 l 242 94 q 268 94 281 106 q 293 118 302 157 l 391 551 q 394 566 394 576 q 394 583 390 586 q 385 590 375 590 q 353 590 333 580 q 301 563 269 529 q 245 503 196 427 l 107 473 z"},"P":{"x_min":0,"x_max":640,"ha":640,"o":"m 188 681 l 480 681 q 577 681 626 660 q 675 640 702 600 q 729 561 729 507 q 729 468 716 432 q 703 396 676 365 q 649 333 615 312 q 581 292 539 283 q 477 270 418 270 l 343 270 l 315 152 q 311 131 311 119 q 311 107 319 101 q 328 94 351 94 l 385 94 l 363 0 l 33 0 l 55 94 l 80 94 q 116 94 129 105 q 143 115 150 147 l 237 535 q 241 551 241 560 q 241 569 237 576 q 233 582 225 584 q 219 587 198 587 l 166 587 z m 366 377 l 400 377 q 453 377 476 385 q 508 396 530 426 q 552 457 552 492 q 552 518 540 537 q 528 556 507 564 q 485 573 438 573 l 412 573 z"},"|":{"x_min":0,"x_max":620,"ha":620,"o":"m 328 717 l 452 717 l 452 -218 l 328 -218 z"},"t":{"x_min":0,"x_max":440,"ha":440,"o":"m 303 654 l 402 654 l 364 487 l 507 487 l 484 393 l 342 393 l 293 179 q 287 147 287 134 q 287 117 296 108 q 305 99 321 99 q 339 99 367 116 q 396 133 431 174 l 496 118 q 431 42 383 15 q 335 -12 281 -12 q 215 -12 173 27 q 131 65 131 115 q 131 142 141 186 l 188 393 l 112 393 l 132 475 q 175 487 204 508 q 233 530 260 568 q 287 606 303 654 z"},"M":{"x_min":0,"x_max":860,"ha":860,"o":"m 182 681 l 488 681 l 495 294 l 680 681 l 989 681 l 968 587 l 945 587 q 922 587 913 584 q 904 581 897 573 q 890 566 884 553 q 883 550 879 530 l 792 149 q 788 127 788 120 q 788 108 796 101 q 805 94 822 94 l 857 94 l 835 0 l 528 0 l 549 94 l 568 94 q 602 94 615 106 q 629 117 637 152 l 732 582 l 448 0 l 367 0 l 352 597 l 250 149 q 246 129 246 122 q 246 108 254 101 q 262 94 277 94 l 288 94 l 316 94 l 294 0 l 28 0 l 49 94 l 67 94 q 96 94 107 99 q 119 104 126 114 q 133 124 139 152 l 225 533 q 229 553 229 559 q 229 570 223 579 q 216 587 196 587 l 160 587 z"},"g":{"x_min":0,"x_max":620,"ha":620,"o":"m 552 487 l 666 487 l 572 76 q 559 18 550 -8 q 533 -59 509 -95 q 484 -131 443 -161 q 401 -190 346 -207 q 291 -223 226 -223 q 160 -223 115 -207 q 69 -191 50 -166 q 30 -142 30 -113 q 30 -83 51 -63 q 72 -43 104 -43 q 123 -43 137 -51 q 152 -59 173 -84 q 193 -108 210 -117 q 228 -125 251 -125 q 294 -125 333 -97 q 372 -68 396 -18 q 412 15 420 65 q 393 36 370 21 q 346 6 316 -3 q 286 -12 255 -12 q 180 -12 129 42 q 79 95 79 177 q 79 263 120 339 q 162 416 230 457 q 298 499 376 499 q 418 499 450 487 q 483 475 521 444 z m 482 361 q 462 379 442 389 q 422 398 401 398 q 367 398 333 373 q 300 349 275 294 q 250 240 250 182 q 250 144 266 124 q 282 104 308 104 q 350 104 393 154 q 452 226 477 336 z"},"j":{"x_min":0,"x_max":320,"ha":320,"o":"m 330 716 q 367 716 389 694 q 412 671 412 634 q 412 609 399 586 q 386 563 362 550 q 338 537 313 537 q 279 537 256 561 q 232 584 232 619 q 232 655 259 686 q 286 716 330 716 z m 372 499 l 252 -32 q 242 -76 233 -97 q 219 -134 188 -162 q 158 -189 111 -206 q 64 -223 7 -223 q -68 -223 -105 -191 q -134 -165 -134 -131 q -134 -113 -124 -94 q -116 -79 -99 -70 q -82 -61 -63 -61 q -52 -61 -39 -65 q -25 -70 -13 -78 q -7 -82 11 -102 q 27 -119 29 -121 q 36 -124 45 -124 q 61 -124 72 -110 q 84 -96 93 -56 l 187 363 l 111 363 l 133 457 q 175 458 221 469 q 267 479 325 499 z"},"i":{"x_min":0,"x_max":380,"ha":380,"o":"m 333 716 q 371 716 392 692 q 413 668 413 635 q 413 610 400 587 q 387 564 363 550 q 339 536 316 536 q 295 536 275 547 q 254 559 243 578 q 232 597 232 619 q 232 643 246 667 q 260 691 282 704 q 305 716 333 716 z m 335 499 l 381 499 l 294 158 q 285 123 285 115 q 285 107 290 102 q 296 97 305 97 q 331 97 369 132 l 424 67 q 344 -12 255 -12 q 215 -12 188 2 q 161 15 144 41 q 127 67 127 91 q 127 100 131 122 q 136 153 141 173 l 190 362 l 109 362 l 131 456 q 245 469 335 499 z"},"y":{"x_min":0,"x_max":600,"ha":600,"o":"m 170 364 l 93 364 l 116 457 q 209 463 307 499 l 356 499 l 284 181 q 276 146 276 134 q 276 121 285 113 q 294 105 312 105 q 333 105 359 125 q 396 154 427 214 q 458 274 478 364 l 504 487 l 659 487 l 558 41 q 528 -91 446 -154 q 356 -223 217 -223 q 120 -223 71 -190 q 23 -157 23 -113 q 23 -84 44 -63 q 66 -42 96 -42 q 114 -42 132 -51 q 144 -58 166 -83 q 185 -107 203 -116 q 220 -125 244 -125 q 271 -125 299 -112 q 328 -100 351 -76 q 374 -53 389 -19 q 405 14 415 67 q 388 37 365 21 q 341 5 312 -3 q 283 -12 250 -12 q 208 -12 180 3 q 153 17 135 46 q 117 74 117 103 q 117 126 127 172 z"},"@":{"x_min":0,"x_max":780,"ha":780,"o":"m 602 452 l 721 457 l 632 150 q 617 100 617 75 q 617 58 628 47 q 640 35 657 35 q 692 35 746 76 q 800 117 833 188 q 867 259 867 338 q 867 427 826 499 q 786 570 717 608 q 647 646 554 646 q 433 646 336 590 q 239 533 181 427 q 123 321 123 196 q 123 20 237 -88 q 344 -188 504 -188 q 603 -188 690 -148 q 778 -108 837 -38 q 878 11 905 81 l 935 81 q 895 -17 832 -82 q 770 -146 686 -181 q 602 -216 503 -216 q 321 -216 200 -101 q 71 21 71 213 q 71 344 132 451 q 193 558 300 617 q 407 677 543 677 q 651 677 729 636 q 807 595 851 519 q 895 443 895 347 q 895 250 853 167 q 811 84 745 42 q 680 0 602 0 q 569 0 548 10 q 527 21 515 42 q 502 62 502 87 q 502 111 514 154 q 476 91 456 67 q 427 33 395 13 q 373 0 346 0 q 310 0 287 28 q 264 57 264 110 q 264 174 288 241 q 312 308 355 362 q 398 417 453 450 q 486 470 516 470 q 548 470 567 447 q 580 432 585 394 z m 530 435 q 518 435 501 423 q 485 412 458 363 q 432 314 411 245 q 390 176 390 135 q 390 113 398 101 q 407 89 418 89 q 427 89 442 101 q 468 119 498 166 q 527 213 545 269 q 563 325 563 369 q 563 402 552 418 q 542 435 530 435 z"},".":{"x_min":0,"x_max":340,"ha":340,"o":"m 195 171 q 218 171 239 160 q 259 149 271 129 q 282 109 282 87 q 282 62 268 38 q 254 14 231 1 q 208 -12 180 -12 q 142 -12 119 11 q 96 33 96 70 q 96 97 109 120 q 122 144 146 157 q 171 171 195 171 z"},"p":{"x_min":0,"x_max":660,"ha":660,"o":"m 182 363 l 106 363 l 128 456 q 239 468 314 499 l 361 499 l 340 405 q 370 442 395 460 q 419 478 451 489 q 483 499 517 499 q 567 499 605 476 q 643 453 665 408 q 688 363 688 304 q 688 224 645 147 q 603 70 536 29 q 469 -12 391 -12 q 354 -12 325 -2 q 295 7 261 30 l 238 -75 q 233 -96 233 -102 q 233 -114 246 -120 q 254 -124 288 -124 l 311 -124 l 288 -218 l -25 -218 l -5 -124 l 13 -124 q 45 -124 56 -120 q 66 -116 72 -107 q 79 -97 86 -66 z m 284 126 q 322 88 366 88 q 399 88 433 113 q 466 137 491 193 q 516 248 516 306 q 516 343 500 363 q 484 382 458 382 q 429 382 394 354 q 360 326 326 259 q 303 211 291 158 z"},"X":{"x_min":0,"x_max":740,"ha":740,"o":"m 177 681 l 514 681 l 492 587 l 465 587 q 440 587 432 581 q 424 575 424 562 q 424 554 436 532 l 495 421 l 590 532 q 599 542 606 555 q 609 560 609 564 q 609 571 604 577 q 600 583 592 585 q 586 587 562 587 l 547 587 l 568 681 l 860 681 l 839 587 q 808 587 791 579 q 768 568 746 545 l 542 333 l 655 164 q 685 117 704 106 q 722 94 761 94 l 740 0 l 400 0 l 421 94 l 444 94 q 472 94 480 100 q 488 105 488 118 q 488 131 476 151 q 473 154 471 159 l 401 286 l 279 146 q 264 129 262 125 q 258 119 258 113 q 258 104 267 99 q 275 94 302 94 l 324 94 l 302 0 l 7 0 l 28 94 q 50 95 69 101 q 88 106 99 116 q 121 133 133 146 l 354 378 l 246 540 q 228 567 206 579 q 190 587 156 587 z"},"*":{"x_min":0,"x_max":460,"ha":460,"o":"m 313 548 q 297 608 297 630 q 297 658 313 675 q 329 693 352 693 q 373 693 387 678 q 401 664 401 643 q 401 627 395 612 q 385 589 352 542 q 361 534 368 524 l 387 535 q 421 556 437 561 q 453 567 468 567 q 491 567 506 552 q 521 537 521 517 q 521 496 505 481 q 489 466 465 466 q 441 466 374 485 q 370 474 363 464 q 403 429 413 418 q 427 402 432 390 q 437 378 437 366 q 437 344 422 330 q 408 315 388 315 q 371 315 356 327 q 341 338 336 359 q 330 379 328 446 q 315 447 304 451 q 278 386 259 366 q 240 347 216 347 q 196 347 181 361 q 167 375 167 394 q 167 418 186 437 q 206 455 276 479 q 273 491 271 503 q 265 503 232 506 q 199 509 181 518 q 164 526 154 540 q 145 554 145 569 q 145 589 159 604 q 173 618 194 618 q 211 618 227 607 q 243 597 275 557 l 291 537 q 301 544 313 548 z"},"Y":{"x_min":0,"x_max":660,"ha":660,"o":"m 154 681 l 473 681 l 452 587 l 418 587 q 395 587 388 583 q 375 574 375 560 q 375 550 381 535 l 439 374 l 548 523 q 562 543 566 551 q 570 559 570 565 q 570 575 561 581 q 553 587 526 587 l 504 587 l 526 681 l 810 681 l 789 587 q 763 587 751 583 q 739 579 727 570 q 714 561 697 539 l 485 274 l 457 147 q 452 126 452 122 q 452 106 464 99 q 473 94 500 94 l 526 94 l 504 0 l 175 0 l 197 94 l 216 94 q 248 94 260 99 q 272 103 279 112 q 286 122 292 147 l 319 271 l 210 529 q 198 559 190 568 q 182 577 169 582 q 157 587 132 587 z"},"c":{"x_min":0,"x_max":560,"ha":560,"o":"m 518 163 l 572 89 q 440 -12 304 -12 q 203 -12 142 46 q 82 104 82 195 q 82 272 125 343 q 169 413 246 456 q 323 499 410 499 q 497 499 547 458 q 598 417 598 363 q 598 325 577 303 q 555 281 520 281 q 499 281 481 291 q 464 300 454 317 q 448 325 442 347 q 436 371 430 379 q 424 388 413 394 q 403 399 391 399 q 364 399 337 376 q 301 348 276 294 q 251 241 251 189 q 251 148 277 122 q 303 97 345 97 q 379 97 425 114 q 471 130 518 163 z"},"!":{"x_min":0,"x_max":320,"ha":320,"o":"m 256 208 l 163 208 q 181 312 186 372 l 201 553 q 206 608 214 628 q 222 648 237 663 q 251 678 270 685 q 288 693 308 693 q 344 693 367 670 q 391 647 391 614 q 391 595 386 577 q 381 559 359 510 q 333 450 302 359 q 287 315 256 208 z m 188 167 q 211 167 230 156 q 250 146 260 126 q 271 107 271 85 q 271 61 257 37 q 244 14 221 1 q 198 -12 171 -12 q 136 -12 114 11 q 92 33 92 69 q 92 96 104 118 q 117 140 141 153 q 165 167 188 167 z"},"/":{"x_min":0,"x_max":360,"ha":360,"o":"m 539 720 l 73 -155 l -49 -155 l 417 720 z"},"[":{"x_min":0,"x_max":260,"ha":260,"o":"m 205 709 l 423 709 l 403 625 l 314 625 l 137 -147 l 229 -147 l 209 -231 l -8 -231 z"},"6":{"x_min":0,"x_max":680,"ha":680,"o":"m 717 693 l 697 597 q 623 597 570 589 q 518 582 477 565 q 436 549 407 528 q 379 506 360 480 q 342 455 330 418 q 354 437 380 446 q 425 460 474 460 q 540 460 590 434 q 640 408 668 361 q 695 313 695 255 q 695 186 656 121 q 618 57 552 23 q 485 -12 394 -12 q 268 -12 197 58 q 125 128 125 248 q 125 338 164 428 q 203 519 265 575 q 328 632 409 656 q 533 693 663 693 z m 423 349 q 387 349 355 330 q 323 311 304 275 q 285 240 285 199 q 285 146 315 119 q 345 92 390 92 q 426 92 458 111 q 489 131 508 167 q 527 203 527 245 q 527 292 498 320 q 469 349 423 349 z"},"r":{"x_min":0,"x_max":500,"ha":500,"o":"m 357 499 l 333 389 q 361 431 387 453 q 413 476 443 487 q 473 499 501 499 q 543 499 568 476 q 593 454 593 418 q 593 381 571 357 q 549 333 517 333 q 504 333 493 336 q 486 338 459 354 q 441 364 428 364 q 418 364 409 359 q 394 352 375 333 q 356 313 335 274 q 319 246 300 184 q 280 122 268 67 l 251 0 l 98 0 l 179 362 l 104 362 l 126 457 q 205 458 312 499 z"},"2":{"x_min":0,"x_max":680,"ha":680,"o":"m 248 405 l 150 410 q 153 503 181 556 q 214 618 283 655 q 352 693 452 693 q 537 693 595 667 q 653 642 683 597 q 712 553 712 501 q 712 465 697 428 q 681 392 647 356 q 614 320 559 283 q 503 246 461 223 q 454 220 446 215 l 317 142 l 466 142 q 507 142 521 145 q 534 147 544 155 q 554 163 562 176 q 566 184 581 226 l 681 226 l 593 -24 l 528 -24 l 525 0 l 64 0 l 85 94 q 172 146 310 242 q 448 338 493 382 q 519 407 531 436 q 541 457 541 480 q 541 522 510 546 q 471 577 410 577 q 361 577 325 557 q 289 537 270 501 q 250 464 248 405 z"},"{":{"x_min":0,"x_max":300,"ha":300,"o":"m 404 693 l 399 670 q 363 664 341 651 q 318 638 303 619 q 288 600 283 579 q 276 550 276 500 q 276 437 266 405 q 256 373 231 343 q 206 312 171 292 q 136 271 72 254 q 125 236 149 219 q 172 201 185 175 q 198 149 198 120 q 198 101 194 86 q 186 59 166 16 q 131 -59 131 -92 q 131 -109 139 -124 q 147 -139 162 -148 q 176 -158 207 -164 l 202 -187 q 160 -187 144 -184 q 115 -177 89 -159 q 62 -142 48 -115 q 33 -89 33 -65 q 33 -21 72 60 q 87 92 95 121 q 103 150 103 168 q 103 193 84 213 q 65 232 29 238 l 36 268 q 78 275 106 296 q 134 318 148 351 q 162 383 162 441 q 162 502 165 519 q 168 550 185 576 q 208 614 243 641 q 279 668 323 682 q 355 691 404 693 z"},"9":{"x_min":0,"x_max":680,"ha":680,"o":"m 119 -12 l 139 83 q 213 83 265 91 q 318 99 359 115 q 400 131 429 153 q 457 175 476 200 q 494 226 506 263 q 482 244 456 235 q 411 220 362 220 q 296 220 246 247 q 196 273 168 320 q 140 368 140 425 q 140 496 179 560 q 218 624 284 658 q 351 693 442 693 q 568 693 639 623 q 711 553 711 433 q 711 342 672 252 q 633 163 571 106 q 508 49 427 25 q 303 -12 173 -12 z m 413 332 q 449 332 481 351 q 513 371 532 406 q 551 441 551 482 q 551 535 521 562 q 491 589 446 589 q 410 589 378 570 q 347 550 328 514 q 309 478 309 436 q 309 390 338 361 q 367 332 413 332 z"}," ":{"x_min":0,"x_max":340,"ha":340,"o":""},"I":{"x_min":0,"x_max":380,"ha":380,"o":"m 176 681 l 507 681 l 487 587 l 463 587 q 434 587 422 582 q 411 577 404 567 q 397 557 391 526 l 306 148 q 301 125 301 120 q 301 106 312 99 q 320 94 349 94 l 376 94 l 354 0 l 23 0 l 45 94 l 70 94 q 99 94 111 99 q 123 104 129 114 q 135 124 143 158 l 227 530 q 231 551 231 559 q 231 573 222 580 q 212 587 183 587 l 156 587 z"},"H":{"x_min":0,"x_max":800,"ha":800,"o":"m 186 681 l 516 681 l 494 587 l 466 587 q 440 587 428 582 q 417 576 411 567 q 405 558 397 523 l 371 405 l 612 405 l 641 528 q 646 550 646 560 q 646 573 635 581 q 627 587 600 587 l 571 587 l 592 681 l 923 681 l 901 587 l 882 587 q 847 587 835 581 q 824 576 817 563 q 813 554 806 523 l 723 158 q 715 127 715 118 q 715 104 727 99 q 736 94 766 94 l 791 94 l 771 0 l 438 0 l 459 94 l 489 94 q 513 94 525 100 q 538 106 544 116 q 550 126 558 162 l 589 302 l 347 302 l 312 149 q 307 127 307 118 q 307 105 322 99 q 332 94 363 94 l 382 94 l 363 0 l 30 0 l 52 94 l 74 94 q 102 94 118 100 q 129 104 135 114 q 141 123 148 155 l 232 528 q 238 555 238 560 q 238 573 227 581 q 219 587 188 587 l 164 587 z"},"4":{"x_min":0,"x_max":680,"ha":680,"o":"m 517 681 l 669 681 l 585 307 l 713 307 l 687 190 l 559 190 l 517 0 l 362 0 l 406 190 l 79 190 l 113 337 z m 432 307 l 479 516 l 233 307 z"},"~":{"x_min":0,"x_max":620,"ha":620,"o":"m 585 433 l 640 372 q 609 321 588 300 q 567 278 544 268 q 522 258 498 258 q 480 258 462 263 q 444 268 386 292 q 321 319 310 323 q 299 326 286 326 q 262 326 242 310 q 223 293 194 240 l 140 302 q 169 354 191 377 q 212 400 236 412 q 260 423 283 423 q 304 423 325 417 q 355 409 406 386 q 459 363 473 359 q 487 355 497 355 q 518 355 538 370 q 557 385 585 433 z"},"D":{"x_min":0,"x_max":760,"ha":760,"o":"m 31 0 l 53 94 l 78 94 q 103 94 113 97 q 128 102 136 113 q 142 122 149 152 l 234 526 q 240 555 240 561 q 240 575 228 583 q 221 587 192 587 l 166 587 l 187 681 l 487 681 q 574 681 627 667 q 681 652 712 628 q 766 588 793 533 q 820 479 820 407 q 820 320 788 242 q 755 164 701 112 q 639 55 562 27 q 485 0 366 0 z m 410 573 l 314 152 q 309 128 309 121 q 309 114 316 110 q 322 106 346 106 l 379 106 q 466 106 515 140 q 563 173 596 234 q 640 315 640 411 q 640 468 620 504 q 601 540 568 557 q 535 573 470 573 z"},"^":{"x_min":0,"x_max":620,"ha":620,"o":"m 248 283 l 141 283 l 338 681 l 440 681 l 639 283 l 532 283 l 390 559 z"},"0":{"x_min":0,"x_max":680,"ha":680,"o":"m 483 693 q 594 693 661 626 q 727 559 727 446 q 727 319 672 205 q 617 91 538 39 q 459 -12 356 -12 q 278 -12 225 18 q 172 48 141 105 q 110 162 110 240 q 110 333 142 421 q 173 509 226 571 q 279 633 344 663 q 408 693 483 693 z m 474 588 q 448 588 420 575 q 393 562 371 539 q 350 515 327 459 q 304 404 289 333 q 273 262 273 208 q 273 170 285 144 q 297 119 318 105 q 339 91 364 91 q 396 91 429 111 q 462 131 484 168 q 514 219 539 308 q 564 397 564 466 q 564 507 552 534 q 541 561 520 575 q 499 588 474 588 z"},"F":{"x_min":0,"x_max":660,"ha":660,"o":"m 188 681 l 702 681 l 766 475 l 676 446 q 663 483 643 510 q 622 537 602 548 q 582 560 541 566 q 500 573 475 573 l 412 573 l 369 386 l 386 385 q 411 385 430 391 q 450 397 461 407 q 471 417 477 428 q 479 433 484 456 q 489 476 491 483 l 583 483 l 516 192 l 426 192 q 428 202 430 215 q 435 237 435 247 q 435 261 427 272 q 419 283 406 288 q 393 292 361 292 l 348 292 l 314 144 q 310 124 310 120 q 310 108 318 101 q 327 94 342 94 l 386 94 l 364 0 l 33 0 l 55 94 l 82 94 q 108 94 120 99 q 132 104 138 113 q 144 122 151 151 l 238 532 q 242 550 242 560 q 242 568 237 575 q 232 582 224 585 q 218 587 194 587 l 167 587 z"},"`":{"x_min":0,"x_max":380,"ha":380,"o":"m 336 598 l 294 554 l 185 609 q 140 633 125 653 q 110 673 110 694 q 110 719 128 737 q 146 755 172 755 q 203 755 230 732 q 258 710 336 598 z"},"k":{"x_min":0,"x_max":700,"ha":700,"o":"m 413 716 l 318 288 q 354 344 389 380 q 425 417 470 446 q 515 475 551 487 q 586 499 620 499 q 676 499 708 475 q 740 450 740 417 q 740 398 731 383 q 722 367 704 358 q 687 349 668 349 q 645 349 614 368 q 584 387 577 389 q 566 394 555 394 q 541 394 524 386 q 507 379 482 359 l 534 215 q 557 153 567 136 q 580 115 595 105 q 610 95 623 95 q 651 95 694 131 l 748 68 q 667 -12 569 -12 q 510 -12 470 21 q 430 53 405 127 l 365 246 q 323 188 296 132 q 269 75 249 0 l 98 0 l 228 581 l 150 581 l 172 675 q 221 676 265 686 q 309 695 365 716 z"},"u":{"x_min":0,"x_max":680,"ha":680,"o":"m 666 487 l 590 148 q 585 126 585 120 q 585 110 591 104 q 597 97 606 97 q 617 97 630 104 q 653 116 670 132 l 726 68 q 642 -12 552 -12 q 500 -12 468 17 q 441 41 429 86 q 398 45 352 17 q 305 -12 247 -12 q 188 -12 154 22 q 119 55 119 107 q 119 137 126 161 q 128 168 130 175 l 172 362 l 96 362 l 117 456 q 164 458 215 469 q 267 480 310 499 l 356 499 l 283 171 q 277 146 277 137 q 277 123 287 114 q 296 104 311 104 q 331 104 353 120 q 386 142 413 185 q 440 229 462 292 q 484 356 487 376 q 488 384 490 393 l 512 487 z"},"]":{"x_min":0,"x_max":260,"ha":260,"o":"m 133 -231 l -84 -231 l -65 -147 l 24 -147 l 201 625 l 109 625 l 129 709 l 347 709 z"},"U":{"x_min":0,"x_max":740,"ha":740,"o":"m 167 681 l 498 681 l 477 587 l 455 587 q 424 587 416 583 q 402 578 395 568 q 387 558 382 534 l 323 271 l 320 259 q 312 230 312 205 q 312 160 344 131 q 375 102 425 102 q 464 102 497 119 q 530 137 552 170 q 574 203 588 263 l 649 534 q 652 547 652 560 q 652 574 643 580 q 634 587 604 587 l 578 587 l 600 681 l 878 681 l 857 587 l 831 587 q 808 587 800 584 q 792 582 784 575 q 776 569 772 559 q 767 550 762 527 l 694 229 q 687 196 667 152 q 648 107 609 69 q 569 31 514 10 q 459 -12 393 -12 q 315 -12 261 14 q 206 41 176 87 q 146 133 146 186 q 146 218 152 250 l 216 534 q 221 555 221 560 q 221 575 208 582 q 199 587 173 587 l 147 587 z"},"o":{"x_min":0,"x_max":600,"ha":600,"o":"m 392 499 q 493 499 561 443 q 629 386 629 291 q 629 211 587 139 q 546 67 477 28 q 409 -12 323 -12 q 213 -12 148 48 q 84 108 84 204 q 84 283 125 352 q 165 420 235 460 q 306 499 392 499 z m 387 399 q 355 399 325 376 q 296 353 273 297 q 251 242 251 184 q 251 137 271 113 q 292 89 324 89 q 357 89 387 112 q 417 135 439 189 q 461 244 461 305 q 461 352 441 376 q 421 399 387 399 z"},"N":{"x_min":0,"x_max":740,"ha":740,"o":"m 186 681 l 451 681 l 577 255 l 644 534 q 648 552 648 560 q 648 575 637 582 q 628 587 600 587 l 573 587 l 595 681 l 873 681 l 851 587 l 823 587 q 799 587 787 581 q 775 576 768 564 q 763 556 755 521 l 636 0 l 497 0 l 343 507 l 264 153 q 257 126 257 120 q 257 105 271 98 q 278 94 306 94 l 333 94 l 312 0 l 31 0 l 52 94 l 72 94 q 110 94 125 103 q 140 112 147 143 l 235 534 q 239 551 239 560 q 239 574 228 582 q 220 587 195 587 l 164 587 z"},"+":{"x_min":0,"x_max":600,"ha":600,"o":"m 622 294 l 429 294 l 429 102 l 331 102 l 331 294 l 138 294 l 138 386 l 331 386 l 331 580 l 429 580 l 429 386 l 622 386 z"},"G":{"x_min":0,"x_max":760,"ha":760,"o":"m 752 681 l 775 445 l 674 435 q 667 484 644 521 q 622 557 589 574 q 557 592 517 592 q 460 592 407 557 q 354 521 321 451 q 287 381 287 303 q 287 241 309 193 q 331 145 365 122 q 400 99 443 99 q 474 99 501 109 q 529 120 541 134 q 554 148 561 179 l 571 220 q 573 229 573 241 q 573 255 566 262 q 558 269 541 269 l 529 269 l 487 269 l 508 363 l 843 363 l 822 269 l 792 269 q 768 269 758 264 q 748 259 741 249 q 735 239 728 208 l 681 0 l 580 0 l 571 41 q 529 13 487 1 q 446 -12 399 -12 q 273 -12 187 77 q 101 166 101 300 q 101 407 153 497 q 204 587 294 640 q 385 693 488 693 q 523 693 557 687 q 591 681 618 670 q 637 663 661 646 l 681 681 z"},"q":{"x_min":0,"x_max":620,"ha":620,"o":"m 660 487 l 535 -68 q 529 -95 529 -101 q 529 -112 539 -118 q 548 -124 577 -124 l 598 -124 l 577 -218 l 264 -218 l 286 -124 l 308 -124 q 339 -124 351 -119 q 363 -114 369 -106 q 375 -97 382 -65 l 413 73 q 339 -12 244 -12 q 197 -12 161 11 q 125 33 101 80 q 78 126 78 179 q 78 261 120 341 q 163 420 228 460 q 293 499 374 499 q 419 499 453 487 q 487 474 519 445 l 550 487 z m 479 363 q 460 381 440 390 q 421 399 401 399 q 368 399 333 373 q 298 347 274 292 q 249 237 249 179 q 249 143 264 124 q 280 105 305 105 q 349 105 391 158 q 452 236 479 363 z"},"d":{"x_min":0,"x_max":680,"ha":680,"o":"m 719 716 l 590 152 l 589 147 q 585 131 585 121 q 585 109 591 104 q 597 98 607 98 q 628 98 671 131 l 726 67 q 690 31 643 10 q 596 -12 555 -12 q 522 -12 496 0 q 470 11 454 31 q 437 52 429 84 q 406 53 375 31 q 344 9 313 -1 q 282 -12 249 -12 q 170 -12 124 51 q 83 105 83 177 q 83 262 125 341 q 167 419 232 459 q 297 499 376 499 q 417 499 448 489 q 478 479 505 456 l 535 580 l 456 580 l 478 675 q 525 676 562 684 q 599 691 671 716 z m 485 363 q 442 399 405 399 q 374 399 339 373 q 304 347 279 292 q 254 237 254 180 q 254 143 270 124 q 285 105 308 105 q 335 105 367 128 q 398 152 433 217 q 468 282 485 363 z"},"1":{"x_min":0,"x_max":680,"ha":680,"o":"m 601 693 l 478 151 q 472 126 472 121 q 472 113 477 106 q 482 99 491 97 q 500 94 525 94 l 604 94 l 582 0 l 152 0 l 173 94 l 233 94 q 268 94 281 97 q 293 99 301 104 q 309 109 313 118 q 321 132 326 154 l 413 539 l 273 539 l 295 633 q 408 640 551 693 z"},"5":{"x_min":0,"x_max":680,"ha":680,"o":"m 287 681 l 617 681 q 646 681 653 682 q 663 685 668 689 q 671 692 674 703 l 739 703 l 700 535 l 359 535 l 335 448 q 376 449 396 449 q 542 449 619 389 q 686 336 686 244 q 686 142 599 65 q 511 -12 379 -12 q 301 -12 239 16 q 176 43 145 84 q 113 125 113 165 q 113 188 123 208 q 131 223 149 232 q 167 242 187 242 q 205 242 221 233 q 237 224 247 210 q 250 205 270 163 q 288 125 319 107 q 350 88 391 88 q 448 88 490 125 q 526 159 526 209 q 526 246 507 272 q 488 299 449 315 q 411 331 343 331 q 266 331 183 316 z"}}}
